<svg width="40" height="40" viewBox="0 0 40 40" fill="none" xmlns="http://www.w3.org/2000/svg">
  <path
    d="M39.3332 10.6667H37.9666C37.8192 8.59467 36.9966 6.71067 35.7126 5.23067L36.4719 4.47133C36.7326 4.21067 36.7326 3.78933 36.4719 3.52867C36.2112 3.268 35.7899 3.268 35.5292 3.52867L34.7699 4.288C33.2899 3.004 31.4052 2.18133 29.3339 2.034V0.666667C29.3339 0.298 29.0352 0 28.6672 0C28.2992 0 28.0006 0.298 28.0006 0.666667V2.034C25.9286 2.18133 24.0446 3.004 22.5646 4.288L21.8052 3.52867C21.5446 3.268 21.1232 3.268 20.8626 3.52867C20.6019 3.78933 20.6019 4.21067 20.8626 4.47133L21.6219 5.23067C20.3379 6.71067 19.5152 8.59533 19.3679 10.6667H17.9999C17.6319 10.6667 17.3332 10.9647 17.3332 11.3333C17.3332 11.702 17.6319 12 17.9999 12H19.3672C19.5146 14.072 20.3372 15.956 21.6212 17.436L20.8619 18.1953C20.7872 18.27 20.7399 18.3593 20.7086 18.4527C19.9352 17.7513 19.0739 17.1487 18.1379 16.666L18.6099 15.604C18.7592 15.2673 18.6079 14.8733 18.2712 14.724C17.9339 14.5753 17.5412 14.7267 17.3912 15.0627L16.9186 16.126C15.5946 15.622 14.1652 15.3333 12.6666 15.3333C11.3679 15.3333 10.1199 15.5473 8.94723 15.9307L8.62123 15.092C8.4879 14.7487 8.10056 14.578 7.75856 14.7127C7.41523 14.8453 7.24523 15.232 7.37856 15.5753L7.70656 16.42C5.24656 17.5427 3.23323 19.4673 1.99923 21.8633L0.937228 21.3913C0.600562 21.2427 0.207228 21.394 0.0572284 21.73C-0.0921049 22.0667 0.0592284 22.4607 0.395895 22.61L1.45923 23.082C0.955228 24.406 0.666562 25.8353 0.666562 27.3333C0.666562 28.632 0.880562 29.8807 1.2639 31.0527L0.425228 31.3787C0.0818951 31.512 -0.0881049 31.898 0.0452284 32.2413C0.147895 32.5053 0.399895 32.6667 0.667228 32.6667C0.747228 32.6667 0.829228 32.6527 0.908562 32.6213L1.75323 32.2933C2.8759 34.7533 4.80056 36.7673 7.19656 38.0013L6.72456 39.0633C6.57523 39.4 6.72656 39.794 7.06323 39.9433C7.15056 39.982 7.24256 40 7.33323 40C7.58856 40 7.83256 39.852 7.94323 39.604L8.41589 38.5407C9.73923 39.0453 11.1686 39.3333 12.6666 39.3333C13.9652 39.3333 15.2132 39.1193 16.3859 38.736L16.7119 39.5747C16.8146 39.8387 17.0666 40 17.3332 40C17.4139 40 17.4952 39.986 17.5746 39.9547C17.9179 39.822 18.0879 39.4353 17.9546 39.092L17.6266 38.2473C20.0866 37.1247 22.0999 35.2 23.3339 32.804L24.3959 33.276C24.4839 33.3153 24.5759 33.3333 24.6666 33.3333C24.9219 33.3333 25.1659 33.1853 25.2766 32.9373C25.4259 32.6007 25.2746 32.2067 24.9379 32.0573L23.8746 31.5853C24.3786 30.2613 24.6666 28.832 24.6666 27.3333C24.6666 26.0347 24.4526 24.786 24.0692 23.614L24.9079 23.288C25.2512 23.1547 25.4212 22.7687 25.2879 22.4253C25.1552 22.082 24.7712 21.9107 24.4252 22.046L23.5806 22.374C23.0632 21.24 22.3746 20.204 21.5472 19.292C21.6406 19.26 21.7299 19.2127 21.8046 19.1387L22.5639 18.3793C24.0439 19.6633 25.9286 20.486 27.9999 20.6333V22C27.9999 22.3687 28.2986 22.6667 28.6666 22.6667C29.0346 22.6667 29.3332 22.3687 29.3332 22V20.6327C31.4052 20.4853 33.2892 19.6627 34.7692 18.3787L35.5679 19.1773C35.6979 19.3073 35.8686 19.3727 36.0392 19.3727C36.2099 19.3727 36.3806 19.3073 36.5106 19.1773C36.7712 18.9167 36.7712 18.4953 36.5106 18.2347L35.7119 17.436C36.9959 15.956 37.8186 14.0713 37.9659 12H39.3332C39.7012 12 39.9999 11.702 39.9999 11.3333C39.9999 10.9647 39.7019 10.6667 39.3332 10.6667ZM12.6666 16.6667C13.9726 16.6667 15.2186 16.914 16.3766 17.3453L13.1032 24.7107C12.9606 24.6873 12.8159 24.6667 12.6666 24.6667C11.1959 24.6667 9.99989 25.8627 9.99989 27.3333C9.99989 27.4393 10.0192 27.54 10.0312 27.6433L2.50523 30.57C2.17923 29.5487 1.99989 28.462 1.99989 27.3333C1.99989 21.452 6.78523 16.6667 12.6666 16.6667ZM11.4292 27.8213C11.4286 27.8193 11.4292 27.8173 11.4279 27.8153C11.4272 27.8147 11.4266 27.814 11.4259 27.8127C11.3686 27.6633 11.3332 27.5027 11.3332 27.3333C11.3332 26.598 11.9312 26 12.6666 26C12.8526 26 13.0292 26.0387 13.1906 26.108C13.1966 26.1107 13.2006 26.1167 13.2066 26.1193C13.2092 26.1207 13.2119 26.12 13.2146 26.1207C13.6766 26.3307 13.9999 26.794 13.9999 27.3333C13.9999 28.0687 13.4019 28.6667 12.6666 28.6667C12.1039 28.6667 11.6246 28.3153 11.4292 27.8213ZM2.9979 31.8087L10.5092 28.8873C10.9939 29.5587 11.7779 30 12.6666 30C12.7726 30 12.8732 29.9807 12.9766 29.9687L15.9032 37.4947C14.8819 37.8207 13.7952 38 12.6666 38C8.38456 38 4.69389 35.458 2.9979 31.8087ZM17.1426 37.0027L14.2212 29.4913C14.8919 29.006 15.3332 28.2227 15.3332 27.3333C15.3332 26.49 14.9319 25.746 14.3192 25.2567L17.5966 17.8833C21.0012 19.6673 23.3332 23.2307 23.3332 27.3333C23.3332 31.6153 20.7919 35.306 17.1426 37.0027ZM28.6666 19.3333C24.2552 19.3333 20.6666 15.7447 20.6666 11.3333C20.6666 6.922 24.2559 3.33333 28.6666 3.33333C33.0772 3.33333 36.6666 6.922 36.6666 11.3333C36.6666 15.7447 33.0779 19.3333 28.6666 19.3333Z"
    fill="#D9F1FE"/>
  <path
    d="M28.6667 8.66666C27.196 8.66666 26 9.86266 26 11.3333C26 12.804 27.196 14 28.6667 14C30.1373 14 31.3333 12.804 31.3333 11.3333C31.3333 9.86266 30.1373 8.66666 28.6667 8.66666ZM28.6667 12.6667C27.9313 12.6667 27.3333 12.0687 27.3333 11.3333C27.3333 10.598 27.9313 10 28.6667 10C29.402 10 30 10.598 30 11.3333C30 12.0687 29.402 12.6667 28.6667 12.6667Z"
    fill="#D9F1FE"/>
</svg>
