<?xml version="1.0" encoding="utf-8"?>
<!-- Svg Vector Icons : http://www.onlinewebfonts.com/icon -->
<!DOCTYPE svg PUBLIC "-//W3C//DTD SVG 1.1//EN" "http://www.w3.org/Graphics/SVG/1.1/DTD/svg11.dtd">
<svg version="1.1" xmlns="http://www.w3.org/2000/svg" xmlns:xlink="http://www.w3.org/1999/xlink" x="0px" y="0px" viewBox="0 0 1000 1000" enable-background="new 0 0 1000 1000" xml:space="preserve">
<metadata> Svg Vector Icons : http://www.onlinewebfonts.com/icon </metadata>
<g><g transform="translate(0.000000,511.000000) scale(0.100000,-0.100000)"><path  style="stroke:#9E9E9E;fill:#9E9E9E"  d="M4638.1,5006c-699.6-70.2-1227.9-216.7-1818.1-503.5C1544.6,3877.2,595.3,2705,242.4,1316.1C131,874.5,100,610.4,100,106.8c0-501.5,31-761.5,142.4-1207.3C679.9-2836,2048.1-4206.3,3789.9-4650c437.5-109.4,705.8-142.4,1209.3-142.4c501.5,0,759.4,31,1207.3,142.4c1382.7,348.8,2559,1298.1,3186.4,2575.5c241.4,491.2,385.9,947.3,468.4,1490c51.6,342.6,51.6,1036,0,1382.7c-165.1,1081.4-633.5,2014.2-1395.1,2775.7c-414.8,414.8-800.7,691.3-1310.4,939c-476.7,231.1-951.4,379.7-1454.9,454C5475.9,4999.8,4817.6,5024.6,4638.1,5006z M5455.3,4564.4c2299-231.1,4042.8-2152.4,4042.8-4457.6c0-1867.6-1166-3547.5-2916-4197.6c-2313.4-862.6-4893,317.8-5759.8,2635.3C275.4,3.6,539.6,1667,1509.5,2892.8c150.7,187.8,497.4,538.6,691.3,695.5C3110.9,4325,4295.5,4680,5455.3,4564.4z"/><path  style="stroke:#9E9E9E;fill:#9E9E9E"  d="M3276,2451.2c-173.3-43.3-303.4-117.6-433.4-249.7C2306.1,1667,2599.1,767.2,3350.3,639.2c385.9-66,786.3,140.3,965.8,495.3c227,447.8,53.7,998.8-383.8,1227.9C3709.4,2478,3496.9,2506.9,3276,2451.2z"/><path  style="stroke:#9E9E9E;fill:#9E9E9E"  d="M6309.7,2451.2c-171.3-41.3-301.3-115.6-435.5-247.6c-280.7-282.7-352.9-695.5-179.5-1060.7c72.2-152.7,270.3-350.8,423.1-423.1c365.3-173.4,775.9-101.1,1058.7,181.6c367.3,367.3,367.3,934.9,2.1,1302.2C6943.2,2436.7,6625.4,2527.5,6309.7,2451.2z"/><path  style="stroke:#9E9E9E;fill:#9E9E9E"  d="M3276-479.3c-171.3-41.3-301.3-115.6-435.4-247.6c-365.3-367.3-365.3-936.9,0-1304.3c367.3-365.3,934.9-365.3,1302.2,2.1s367.3,934.9,2.1,1302.2C3909.6-493.7,3591.8-402.9,3276-479.3z"/><path  style="stroke:#9E9E9E;fill:#9E9E9E"  d="M6309.7-479.3c-171.3-41.3-301.3-115.6-435.5-247.6c-280.7-282.7-352.9-695.5-179.5-1060.7c72.2-152.7,270.3-350.8,423.1-423.1c365.3-173.4,775.9-101.1,1058.7,181.6c367.3,367.3,367.3,934.9,2.1,1302.2C6943.2-493.7,6625.4-402.9,6309.7-479.3z"/></g></g>
</svg>
