<svg width="40" height="38" viewBox="0 0 40 38" fill="none" xmlns="http://www.w3.org/2000/svg">
  <path d="M0 28.6429V0.785713H40V28.6429H0ZM38.5714 2.21428H1.42857V27.2143H38.5714V2.21428Z" fill="#9E9E9E"/>
  <path d="M2.14284 30.0714H37.8571C38.2514 30.0714 38.5714 30.3914 38.5714 30.7857C38.5714 31.18 38.2514 31.5 37.8571 31.5H2.14284C1.74856 31.5 1.42856 31.18 1.42856 30.7857C1.42856 30.3914 1.74856 30.0714 2.14284 30.0714Z" fill="#9E9E9E"/>
  <path
    d="M4.28573 32.9286H35.7143C36.1086 32.9286 36.4286 33.2486 36.4286 33.6428C36.4286 34.0371 36.1086 34.3571 35.7143 34.3571H4.28573C3.89144 34.3571 3.57144 34.0371 3.57144 33.6428C3.57144 33.2486 3.89144 32.9286 4.28573 32.9286Z"
    fill="#9E9E9E"/>
  <path d="M6.42858 35.7857H33.5714C33.9657 35.7857 34.2857 36.1057 34.2857 36.5C34.2857 36.8943 33.9657 37.2143 33.5714 37.2143H6.42858C6.03429 37.2143 5.71429 36.8943 5.71429 36.5C5.71429 36.1057 6.03429 35.7857 6.42858 35.7857Z" fill="#9E9E9E"/>
</svg>
