<?xml version="1.0" encoding="iso-8859-1"?>
<!-- Generator: Adobe Illustrator 19.0.0, SVG Export Plug-In . SVG Version: 6.00 Build 0)  -->
<svg version="1.1" id="Capa_1" xmlns="http://www.w3.org/2000/svg" xmlns:xlink="http://www.w3.org/1999/xlink" x="0px" y="0px"
	 viewBox="0 0 55.017 55.017" style="enable-background:new 0 0 55.017 55.017;" xml:space="preserve">
<g>

	<path  style="stroke:#9E9E9E;fill:#9E9E9E"  d="M26.654,38.968c-0.147,0.087-0.304,0.164-0.445,0.255c-0.22,0.142-0.435,0.291-0.646,0.445
		c-0.445,0.327-0.541,0.953-0.215,1.398c0.196,0.267,0.5,0.408,0.808,0.408c0.205,0,0.412-0.063,0.591-0.193
		c0.178-0.131,0.359-0.257,0.548-0.379c0.321-0.208,0.662-0.403,1.014-0.581c0.468-0.237,0.658-0.791,0.462-1.269
		c0.008-0.008,0.018-0.014,0.025-0.022c1.809-1.916,7.905-9.096,10.429-21.058c0.512-2.426,0.627-4.754,0.342-6.919
		c-0.86-6.575-4.945-10.051-11.813-10.051c-6.866,0-10.951,3.476-11.813,10.051c-0.284,2.166-0.169,4.494,0.343,6.919
		C18.783,29.818,24.783,36.97,26.654,38.968z M17.924,11.314c0.733-5.592,3.949-8.311,9.831-8.311c5.883,0,9.098,2.719,9.83,8.311
		c0.255,1.94,0.148,4.043-0.316,6.247C35,28.314,29.59,35.137,27.755,37.207c-1.837-2.072-7.246-8.898-9.514-19.646
		C17.776,15.357,17.67,13.255,17.924,11.314z"/>
	<path  style="stroke:#9E9E9E;fill:#9E9E9E"  d="M27.755,19.925c4.051,0,7.346-3.295,7.346-7.346s-3.295-7.346-7.346-7.346s-7.346,3.295-7.346,7.346
		S23.704,19.925,27.755,19.925z M27.755,7.234c2.947,0,5.346,2.398,5.346,5.346s-2.398,5.346-5.346,5.346s-5.346-2.398-5.346-5.346
		S24.808,7.234,27.755,7.234z"/>



</g>
</svg>
